<svg width="70" height="70" viewBox="0 0 70 70" fill="none" xmlns="http://www.w3.org/2000/svg">
<path d="M49.9422 36.8288C49.8693 29.4409 55.968 25.8971 56.2393 25.7221C52.8122 20.7055 47.4747 20.02 45.573 19.9413C41.0318 19.4805 36.7093 22.6159 34.4022 22.6159C32.1039 22.6159 28.5455 20.0084 24.7772 20.0784C19.8305 20.1513 15.266 22.9542 12.7168 27.3875C7.57179 36.3125 11.3985 49.5396 16.4122 56.7788C18.8622 60.3225 21.7847 64.3038 25.6201 64.158C29.3126 64.0121 30.7097 61.7692 35.1751 61.7692C39.6405 61.7692 40.8976 64.1609 44.806 64.088C48.7814 64.0121 51.2985 60.4742 53.7309 56.9217C56.5455 52.8092 57.7035 48.828 57.7735 48.6238C57.686 48.5859 50.021 45.6488 49.9451 36.8259L49.9422 36.8288ZM42.598 15.1492C44.6339 12.6788 46.0076 9.25171 45.6314 5.83337C42.7001 5.95004 39.1447 7.78754 37.0418 10.2521C35.1547 12.4396 33.501 15.925 33.9443 19.2763C37.2168 19.533 40.5593 17.6138 42.598 15.1492Z" fill="black"/>
</svg>
