<svg width="29" height="34" viewBox="0 0 29 34" fill="none" xmlns="http://www.w3.org/2000/svg">
<path d="M23.5384 18.045C23.4968 13.8234 26.9818 11.7984 27.1368 11.6984C25.1784 8.83171 22.1284 8.44004 21.0418 8.39504C18.4468 8.13171 15.9768 9.92337 14.6584 9.92337C13.3451 9.92337 11.3118 8.43337 9.15844 8.47337C6.33177 8.51504 3.72344 10.1167 2.26677 12.65C-0.67323 17.75 1.51344 25.3084 4.37844 29.445C5.77844 31.47 7.44844 33.745 9.6401 33.6617C11.7501 33.5784 12.5484 32.2967 15.1001 32.2967C17.6518 32.2967 18.3701 33.6634 20.6034 33.6217C22.8751 33.5784 24.3134 31.5567 25.7034 29.5267C27.3118 27.1767 27.9734 24.9017 28.0134 24.785C27.9634 24.7634 23.5834 23.085 23.5401 18.0434L23.5384 18.045ZM19.3418 5.65671C20.5051 4.24504 21.2901 2.28671 21.0751 0.333374C19.4001 0.400041 17.3684 1.45004 16.1668 2.85837C15.0884 4.10837 14.1434 6.10004 14.3968 8.01504C16.2668 8.16171 18.1768 7.06504 19.3418 5.65671Z" fill="white"/>
</svg>
