<svg width="45" height="45" viewBox="0 0 45 45" fill="none" xmlns="http://www.w3.org/2000/svg">
<path d="M2.8125 7.03125V37.9688H42.1875V7.03125H2.8125ZM5.625 9.84375H39.375V29.3991L31.9486 21.9291L30.9375 20.918L24.5658 27.2897L16.4798 19.1166L15.4688 18.1055L5.625 27.9492V9.84375ZM33.75 12.6562C33.0041 12.6563 32.2887 12.9526 31.7613 13.48C31.2338 14.0075 30.9375 14.7228 30.9375 15.4688C30.9375 16.2147 31.2338 16.93 31.7613 17.4575C32.2887 17.9849 33.0041 18.2812 33.75 18.2812C34.4959 18.2812 35.2113 17.9849 35.7387 17.4575C36.2662 16.93 36.5625 16.2147 36.5625 15.4688C36.5625 14.7228 36.2662 14.0075 35.7387 13.48C35.2113 12.9526 34.4959 12.6562 33.75 12.6562V12.6562ZM15.4688 22.1048L28.3894 35.1562H5.625V31.9486L15.4688 22.1048ZM30.9375 24.9173L39.375 33.3548V35.1562H32.3873L26.543 29.2669L30.9375 24.9173Z" fill="#1EBBFF"/>
</svg>
